<?xml version="1.0" encoding="UTF-8"?>
<mxfile host="app.diagrams.net" modified="2025-10-23T00:00:00.000Z" agent="5.0 (Windows)" etag="1" version="20.2.5" type="device">
  <diagram id="diagram-1" name="Architecture">
    <mxGraphModel dx="1195" dy="712" grid="1" gridSize="10" guides="1" tooltips="1" connect="1" arrows="1" fold="1" page="1" pageScale="1" pageWidth="850" pageHeight="1100">
      <root>
        <mxCell id="0"/>
        <mxCell id="1" parent="0"/>

        <!-- External user -->
        <mxCell id="2" value="Users / Clients" style="ellipse;whiteSpace=wrap;html=1;fillColor=#FFFFFF;strokeColor=#000000;" vertex="1" parent="1">
          <mxGeometry x="40" y="40" width="120" height="50" as="geometry"/>
        </mxCell>

        <!-- API Gateway -->
        <mxCell id="3" value="API Gateway\n(port 8888)" style="rounded=1;whiteSpace=wrap;html=1;fillColor=#D5E8D4;strokeColor=#82B366;" vertex="1" parent="1">
          <mxGeometry x="200" y="40" width="180" height="70" as="geometry"/>
        </mxCell>

        <!-- Eureka -->
        <mxCell id="4" value="Eureka (Service Registry)\n(port 8761)" style="rounded=1;whiteSpace=wrap;html=1;fillColor=#FFF2CC;strokeColor=#D6B656;" vertex="1" parent="1">
          <mxGeometry x="420" y="20" width="180" height="70" as="geometry"/>
        </mxCell>

        <!-- Keycloak -->
        <mxCell id="5" value="Keycloak (Auth)\n(port 8090)" style="rounded=1;whiteSpace=wrap;html=1;fillColor=#F8CECC;strokeColor=#B85450;" vertex="1" parent="1">
          <mxGeometry x="420" y="120" width="180" height="70" as="geometry"/>
        </mxCell>

        <!-- Kafka -->
        <mxCell id="6" value="Kafka" style="rounded=1;whiteSpace=wrap;html=1;fillColor=#E1D5E7;strokeColor=#9673A6;" vertex="1" parent="1">
          <mxGeometry x="620" y="20" width="160" height="70" as="geometry"/>
        </mxCell>

        <!-- Redis -->
        <mxCell id="7" value="Redis" style="rounded=1;whiteSpace=wrap;html=1;fillColor=#E1D5E7;strokeColor=#9673A6;" vertex="1" parent="1">
          <mxGeometry x="620" y="120" width="160" height="70" as="geometry"/>
        </mxCell>

        <!-- PgBouncer -->
        <mxCell id="8" value="PgBouncer (pool)\n(port 6432)" style="rounded=1;whiteSpace=wrap;html=1;fillColor=#F2F2F2;strokeColor=#999999;" vertex="1" parent="1">
          <mxGeometry x="820" y="70" width="180" height="70" as="geometry"/>
        </mxCell>

        <!-- Postgres -->
        <mxCell id="9" value="Postgres\n(databases: learning, orders, payments, keycloak, ...)" style="rounded=1;whiteSpace=wrap;html=1;fillColor=#DAE8FC;strokeColor=#6C8EBF;" vertex="1" parent="1">
          <mxGeometry x="1020" y="70" width="200" height="70" as="geometry"/>
        </mxCell>

        <!-- Microservices group -->
        <mxCell id="10" value="Identity Service (8089)" style="rounded=1;whiteSpace=wrap;html=1;fillColor=#FFFFFF;strokeColor=#000000;" vertex="1" parent="1">
          <mxGeometry x="200" y="160" width="180" height="60" as="geometry"/>
        </mxCell>
        <mxCell id="11" value="Payment Service (8084)" style="rounded=1;whiteSpace=wrap;html=1;fillColor=#FFFFFF;strokeColor=#000000;" vertex="1" parent="1">
          <mxGeometry x="400" y="160" width="180" height="60" as="geometry"/>
        </mxCell>
        <mxCell id="12" value="Order Service (8083)" style="rounded=1;whiteSpace=wrap;html=1;fillColor=#FFFFFF;strokeColor=#000000;" vertex="1" parent="1">
          <mxGeometry x="600" y="160" width="180" height="60" as="geometry"/>
        </mxCell>
        <mxCell id="13" value="Project Service (8087)" style="rounded=1;whiteSpace=wrap;html=1;fillColor=#FFFFFF;strokeColor=#000000;" vertex="1" parent="1">
          <mxGeometry x="200" y="240" width="180" height="60" as="geometry"/>
        </mxCell>
        <mxCell id="14" value="Blog Service (8086)" style="rounded=1;whiteSpace=wrap;html=1;fillColor=#FFFFFF;strokeColor=#000000;" vertex="1" parent="1">
          <mxGeometry x="400" y="240" width="180" height="60" as="geometry"/>
        </mxCell>
        <mxCell id="15" value="Learning Service (8085)" style="rounded=1;whiteSpace=wrap;html=1;fillColor=#FFFFFF;strokeColor=#000000;" vertex="1" parent="1">
          <mxGeometry x="600" y="240" width="180" height="60" as="geometry"/>
        </mxCell>
        <mxCell id="16" value="Interaction Service (8088)" style="rounded=1;whiteSpace=wrap;html=1;fillColor=#FFFFFF;strokeColor=#000000;" vertex="1" parent="1">
          <mxGeometry x="800" y="240" width="180" height="60" as="geometry"/>
        </mxCell>

        <!-- Connections -->
        <mxCell id="e1" style="edgeStyle=elbowEdgeStyle;rounded=0;orthogonalLoop=1;jettySize=auto;html=1;strokeColor=#000000;endArrow=block;" edge="1" parent="1" source="2" target="3">
          <mxGeometry relative="1" as="geometry"/>
        </mxCell>
        <mxCell id="e2" style="edgeStyle=orthogonalEdgeStyle;rounded=0;orthogonalLoop=1;html=1;strokeColor=#6C8EBF;endArrow=block;" edge="1" parent="1" source="3" target="4">
          <mxGeometry relative="1" as="geometry"/>
        </mxCell>
        <mxCell id="e3" style="edgeStyle=orthogonalEdgeStyle;rounded=0;dashed=1;html=1;strokeColor=#888888;endArrow=block;" edge="1" parent="1" source="10" target="4">
          <mxGeometry relative="1" as="geometry"/>
        </mxCell>
        <mxCell id="e4" style="edgeStyle=orthogonalEdgeStyle;rounded=0;dashed=1;html=1;strokeColor=#888888;endArrow=block;" edge="1" parent="1" source="11" target="4">
          <mxGeometry relative="1" as="geometry"/>
        </mxCell>
        <mxCell id="e5" style="edgeStyle=orthogonalEdgeStyle;rounded=0;dashed=1;html=1;strokeColor=#888888;endArrow=block;" edge="1" parent="1" source="12" target="4">
          <mxGeometry relative="1" as="geometry"/>
        </mxCell>
        <mxCell id="e6" style="edgeStyle=orthogonalEdgeStyle;rounded=0;dashed=1;html=1;strokeColor=#888888;endArrow=block;" edge="1" parent="1" source="13" target="4">
          <mxGeometry relative="1" as="geometry"/>
        </mxCell>
        <mxCell id="e7" style="edgeStyle=orthogonalEdgeStyle;rounded=0;dashed=1;html=1;strokeColor=#888888;endArrow=block;" edge="1" parent="1" source="14" target="4">
          <mxGeometry relative="1" as="geometry"/>
        </mxCell>
        <mxCell id="e8" style="edgeStyle=orthogonalEdgeStyle;rounded=0;dashed=1;html=1;strokeColor=#888888;endArrow=block;" edge="1" parent="1" source="15" target="4">
          <mxGeometry relative="1" as="geometry"/>
        </mxCell>
        <mxCell id="e9" style="edgeStyle=orthogonalEdgeStyle;rounded=0;html=1;strokeColor=#8E7CC3;endArrow=block;" edge="1" parent="1" source="10" target="6">
          <mxGeometry relative="1" as="geometry"/>
        </mxCell>
        <mxCell id="e10" style="edgeStyle=orthogonalEdgeStyle;rounded=0;html=1;strokeColor=#8E7CC3;endArrow=block;" edge="1" parent="1" source="11" target="6">
          <mxGeometry relative="1" as="geometry"/>
        </mxCell>
        <mxCell id="e11" style="edgeStyle=orthogonalEdgeStyle;rounded=0;html=1;strokeColor=#8E7CC3;endArrow=block;" edge="1" parent="1" source="12" target="6">
          <mxGeometry relative="1" as="geometry"/>
        </mxCell>
        <mxCell id="e12" style="edgeStyle=orthogonalEdgeStyle;rounded=0;html=1;strokeColor=#E06666;endArrow=block;" edge="1" parent="1" source="10" target="7">
          <mxGeometry relative="1" as="geometry"/>
        </mxCell>
        <mxCell id="e13" style="edgeStyle=orthogonalEdgeStyle;rounded=0;html=1;strokeColor=#E06666;endArrow=block;" edge="1" parent="1" source="11" target="7">
          <mxGeometry relative="1" as="geometry"/>
        </mxCell>
        <mxCell id="e14" style="edgeStyle=orthogonalEdgeStyle;rounded=0;html=1;strokeColor=#AAAAAA;endArrow=block;" edge="1" parent="1" source="10" target="8">
          <mxGeometry relative="1" as="geometry"/>
        </mxCell>
        <mxCell id="e15" style="edgeStyle=orthogonalEdgeStyle;rounded=0;html=1;strokeColor=#AAAAAA;endArrow=block;" edge="1" parent="1" source="11" target="8">
          <mxGeometry relative="1" as="geometry"/>
        </mxCell>
        <mxCell id="e16" style="edgeStyle=orthogonalEdgeStyle;rounded=0;html=1;strokeColor=#AAAAAA;endArrow=block;" edge="1" parent="1" source="12" target="8">
          <mxGeometry relative="1" as="geometry"/>
        </mxCell>
        <mxCell id="e17" style="edgeStyle=orthogonalEdgeStyle;rounded=0;html=1;strokeColor=#AAAAAA;endArrow=block;" edge="1" parent="1" source="8" target="9">
          <mxGeometry relative="1" as="geometry"/>
        </mxCell>
        <mxCell id="e18" style="edgeStyle=orthogonalEdgeStyle;rounded=0;html=1;strokeColor=#B85450;endArrow=block;" edge="1" parent="1" source="3" target="5">
          <mxGeometry relative="1" as="geometry"/>
        </mxCell>

      </root>
    </mxGraphModel>
  </diagram>
</mxfile>
